<svg width="728" height="858" viewBox="0 0 728 858" fill="none" xmlns="http://www.w3.org/2000/svg">
<path d="M429.801 0C441.244 2.63325 431.292 22.4783 428.485 29.5433C436.833 23.4653 454.09 11.5673 464.537 14.5913C472.218 21.2265 455.19 41.754 450.584 48.4575C480.843 46.29 523.947 60.5093 548.028 80.2605C567.569 69.0908 582.8 64.4603 605.63 63.186C631.713 61.8315 660.674 67.1715 680.448 85.3103C712.361 114.582 714.919 174.869 685.347 206.426C699.465 216.11 716.607 228.021 723.456 244.13C730.958 261.776 729.338 279.694 711.574 289.69C684.507 304.926 656.48 288.908 629.273 283.117C612.001 279.441 594.672 276.381 577.008 277.277C572.369 277.556 551.854 289.358 546.211 292.086C538.807 295.616 531.318 298.966 523.75 302.132C521.688 321.79 522.87 343.13 525.187 362.726L578.649 391.827C608.42 408.078 660.756 432.508 662.894 470.961C664.237 495.178 646.067 524.129 630.391 541.604C641.686 568.394 631.067 593.203 600.813 596.556C601.771 664.858 580.685 726.921 561.153 791.833C578.783 792.553 618.424 805.521 618.795 827.789C619.077 844.709 593.078 844.228 581.247 843.973C580.699 844.431 580.145 844.881 579.585 845.316C577.594 846.876 575.775 848.076 573.257 848.631C558.119 851.984 513.454 843.539 495.543 841.281C481.667 839.526 397.951 831.104 389.758 837.824C381.249 844.799 342.127 853.018 328.768 855.598C318.963 857.496 309.455 858.741 300.805 852.914C295.097 855.156 292.635 855.794 286.574 856.581C279.015 856.251 275.209 851.264 272.256 851.444C263.659 851.976 256.672 857.916 249.163 846.344C241.837 845.991 220.42 844.589 227.891 831.644C237.813 814.454 261.122 805.933 279.238 800.376L275.357 790.589C226.645 808.626 190.778 814.221 134.353 803.976C97.1307 797.219 -1.12528 766.071 0.00975142 711.756C0.328579 696.486 32.6337 709.933 42.0448 712.431C82.4744 723.163 126.152 719.789 162.514 697.971C207.033 671.256 223.801 638.346 236.354 590.016C232.972 586.798 221.786 572.856 220.113 571.903C191.891 555.861 166.162 536.781 149.521 508.063C128.511 471.793 145.062 447.442 174.46 424.599C200.933 404.03 228.023 388.662 257.29 372.504C260.903 359.206 264.097 344.966 267.323 331.506C262.204 337.983 257.09 341.926 249.309 344.507C252.62 327.727 258.471 307.637 262.434 290.252C259.389 292.144 256.092 293.483 252.81 294.936C252.437 281.219 256.897 269.868 257.566 256.543C257.605 255.742 253.707 257.346 251.742 256.678C249.626 253.566 254.621 200.486 255.017 192.198C250.693 195.893 239.951 206.046 234.428 205.097C222.975 203.127 224.765 179.955 228.451 172.064C231.388 165.777 233.893 163.874 239.384 159.659C230.85 153.728 224.453 147.339 219.989 137.774C214.969 127.009 214.449 114.687 218.545 103.537C231.487 68.8395 276.747 66.6165 306.869 78.1387C321.135 67.266 331.948 61.731 348.726 56.1525C349.375 54.8175 350.037 53.4892 350.711 52.167C355.867 42.0735 383.308 0.816758 395.513 7.18426C399.256 12.279 397.405 21.0533 396.635 27.2528C404.148 18.1275 418.838 4.40925 429.801 0ZM494.17 150.8C495.633 178.967 489.627 203.545 470.594 224.828C434.77 264.888 366.83 268.331 327.264 231.97C311.788 217.747 300.878 195.984 299.557 175.051C286.797 177.08 281.268 177.779 269.393 182.207C268.71 198.603 267.818 217.669 266.293 233.947C273.088 218.727 277.852 205.538 286.269 190.976C283.102 218.485 275.213 249.701 268.223 276.913C275.66 263.308 284.094 243.917 291.911 231.781C291.576 254.688 281.876 294.373 274.966 317.67C281.382 306.873 291.972 287.778 300.513 279.684C295.125 305.922 287.058 331.781 278.148 357.044C277.303 359.439 276.815 361.12 276.43 363.65L276.974 364.348C284.397 363.063 292.858 335.385 302.749 327.597L303.895 327.795C305.06 333.07 296.032 358.267 293.525 364.736C302.098 366.454 320.615 373.775 320.535 384.563L319.652 385.331C317.113 384.62 313.588 382.264 311.253 380.85C302.522 375.563 297.547 373.004 287.445 371.605C250.292 389.513 208.489 414.46 176.442 440.03C153.063 458.684 152.505 475.153 161.943 501.133C161.568 492.118 161.091 473.563 166.478 466.221L167.627 466.011C168.681 470.346 168.855 478.476 169.258 483.321C170.852 502.513 175.535 513.441 186.979 528.583C185.294 522.073 179.394 496.251 185.012 491.624C187.198 493.821 189.801 509.683 191.786 514.708C196.992 527.871 201.616 535.438 209.92 546.681C206.239 534.111 204.66 527.894 204.775 514.566C212.205 527.084 218.366 546.321 227.966 556.859C230.615 554.954 229.146 552.186 231.994 550.896C234.609 554.473 236.578 564.689 238.325 566.901C242.729 572.489 268.901 596.391 275.276 595.769C295.923 593.744 273.52 571.551 269.383 565.716L270.307 565.971C277.537 568.034 283.121 572.181 287.981 577.874C297.015 588.456 301.399 582.209 304.046 571.746L304.276 570.824C302.493 566.534 301.567 564.261 299.247 560.181C296.518 555.388 284.916 548.594 286.526 544.499C296.176 540.164 308.103 558.936 312.682 559.881C318.934 550.559 311.361 536.398 302.967 531.051C290.821 523.318 275.419 522.846 261.497 521.743C259.846 521.608 258.912 521.046 257.904 519.906C259.374 516.711 260.707 516.149 259.617 513.816C252.664 498.989 233.083 484.228 225.345 473.271C230.421 474.298 234.127 475.071 239.124 476.624L239.88 476.286C254.273 469.828 300.308 438.502 313.538 439.582L314.903 440.493C315.066 446.582 301.637 457.761 296.823 462.389C303.006 464.594 315.239 468.344 319.616 472.401L320.075 473.999C317.898 476.286 314.081 476.196 310.909 476.286C304.815 476.451 298.719 476.054 292.698 475.101C289.618 488.489 287.773 499.266 285.286 512.736C310.504 517.349 332.027 529.424 328.195 560.144C327.573 565.131 323.35 568.731 321.254 573.021C313.267 589.746 311.595 599.878 290.707 600.021C278.888 611.668 269.948 609.509 255.948 602.781C255.634 612.224 250.581 649.934 248.817 660.171C255.99 645.741 261.113 632.549 269.933 618.756L270.148 618.418C269.724 625.168 268.838 631.881 267.497 638.511C264.365 656.496 261.105 678.824 257.355 696.299C265.91 678.111 271.131 661.566 281.536 643.521C281.043 669.658 273.036 700.986 273.833 728.999C278.47 713.279 284.818 690.411 293.432 676.971C293.233 684.966 290.028 734.173 286.845 737.106C285.915 737.961 284.759 738.561 283.665 739.184C281.034 744.194 290.989 787.994 293.184 794.504C295.047 800.031 295.72 801.666 300.358 804.988C299.181 805.573 293.752 806.466 291.853 806.894C281.22 809.301 241.101 823.154 246.87 837.066L248.162 837.636C254.045 834.704 261.801 817.851 268.16 819.374C268.656 823.356 258.623 836.129 261.872 842.346C263.551 843.366 264.28 843.449 266.244 842.999C274.701 841.079 277.473 823.874 298.751 817.409L298.309 818.136C294.412 824.511 279.319 838.364 286.561 845.639C300.409 850.349 301.724 818.151 323.881 820.484L324.435 821.526C321.493 827.691 308.58 834.696 309.738 843.059C311.244 844.881 311.611 845.144 314.114 845.331C319.791 845.759 370.308 833.241 377.835 830.586C377.948 827.473 378.368 823.604 377.415 820.784C374.308 818.624 371.857 820.769 372.155 818.241C373.826 804.149 383.952 754.589 391.751 746.699L393.428 746.091C396.103 748.956 396.264 757.356 396.336 761.383C466.67 754.326 552.004 743.744 577.185 666.944C585.796 640.686 587.515 616.986 584.818 589.559C574.608 485.699 497.906 415.132 507.101 306.664C496.59 311.338 473.737 318.569 462.85 315.534L461.959 314.671C463.265 311.635 470.678 308.599 474.001 307.55C499.972 299.349 524.917 284.783 550.153 275.832C540.463 276.662 530.772 277.121 521.06 277.665C494.997 279.128 464.554 283.372 439.829 273.567C437.323 277.751 435.678 281.745 430.913 283.088C428.507 282.656 429.506 283.219 427.907 281.192C425.157 270.044 437.539 257.858 445.762 252.131C445.618 255.416 445.149 260.108 446.051 263.123C456.856 269.773 531.474 263.444 549.997 263.366C594.001 263.18 622.93 266.354 665.655 279.29C659.421 273.008 656.27 266.423 656.375 257.374C656.383 249.665 659.511 242.288 665.047 236.917C673.854 228.384 684.649 227.335 694.814 234.032C688.625 235.958 676.135 238.936 676.727 247.381C681.371 254.587 693.997 239.597 701.904 248.533C706.997 254.287 705.655 266.145 707.8 267.754C710.756 265.238 711.663 263.792 712.166 259.792C713.201 251.468 705.482 238.653 700.021 233.299C671.686 205.523 548.436 142.412 513.614 141.099C511.586 141.041 509.556 141.056 507.528 141.145C501.117 143.15 498.16 145.136 494.17 150.8ZM15.252 716.196C21.9054 735.396 40.8955 754.693 59.3492 763.273C52.4873 754.618 50.2473 749.743 47.0425 739.153C72.7198 765.291 77.5637 770.069 110.858 783.366C102.263 774.929 93.7099 767.729 88.7804 756.636L88.8697 755.473C91.8689 756.823 100.254 763.971 103.1 766.326C118.086 778.746 128.965 785.744 147.687 791.031L164.883 794.999C149.516 787.049 133.191 776.428 123.225 762.021C155.806 776.136 171.908 791.818 210.279 791.196C192.601 786.493 175.271 777.808 161.722 765.418C203.324 775.183 210.046 781.521 253.349 773.624C240.333 770.909 215.357 766.708 204.695 760.333C217.761 759.141 242.918 759.231 257.26 758.856C256.755 755.721 255.897 751.206 255.657 748.161C252.568 749.436 249.602 751.139 246.467 750.666L245.593 749.473C246.247 745.693 249.512 742.701 252.122 739.784C251.951 731.571 251.849 724.986 250.833 716.871C245.989 724.439 244.886 727.116 237.334 732.126L236.987 732.351C236.644 717.599 240.146 693.036 239.399 682.424L238.534 682.363C236.612 684.103 234.056 686.961 231.735 687.336C229.319 682.558 234.938 651.644 234.37 644.886C186.414 727.161 101.836 747.171 15.252 716.196ZM386.381 20.7788C371.323 39.8468 367.511 41.5403 357.789 65.5485C343.522 70.3463 321.115 78.8513 311.43 92.3625C309.647 94.8503 288.773 85.2585 284.635 85.269C256.907 80.862 219.945 94.5555 231.038 128.919C234.233 138.813 242.451 146.753 251.455 151.985C266.837 144.343 279.19 139.045 296.065 135.926C298.079 135.553 298.643 134.031 299.409 132.414C298.918 124.781 289.236 120.769 282.019 120.618C273.61 120.443 257.037 135.015 251.621 133.763C248.404 126.528 259.314 117.214 263.986 113.344C257.508 113.026 244.577 114.969 241.322 112.787C242.45 103.209 263.512 102.263 270.781 103.514C274 104.084 277.184 104.839 280.317 105.774C290.106 109.906 297.277 113.931 302.991 123.289C330.973 60.063 444.772 54.987 482.28 113.755C495.778 108.185 510.242 104.693 524.947 107.252C528.294 98.7908 530.808 94.398 537.341 87.7538C517.632 67.6095 474.965 59.9693 447.889 58.1513C444.294 57.9098 435.779 58.6313 436.222 54.225C437.092 45.5715 447.988 31.6103 453.159 24.8295C440.718 30.6323 430.141 36.6683 420.208 46.218C417.703 48.6255 414.998 51.3878 411.577 51.3278C409.064 45.093 421.106 21.7418 420.238 17.2478C412.57 23.3475 405.529 30.1943 399.22 37.689C396.448 40.9328 388.374 52.068 384.719 52.9328C383.75 52.2953 383.392 52.3695 383.332 51.6023C382.651 42.8468 385.143 29.5853 386.381 20.7788ZM653.509 187.378C664.725 177.312 668.235 169.54 669.226 154.398C671.409 120.84 648.783 92.3355 614.158 92.4255C612.154 92.43 610.252 92.2478 608.246 92.6228C593.366 93.9983 586.633 96.864 574.776 105.497C587.76 118.265 593.593 131.206 600.951 147.584C614.215 142.813 631.08 136.963 643.905 130.608C646.555 129.296 651.716 122.654 654.409 123.258C660.576 131.025 662.219 156.406 655.857 164.113L654.687 163.932C652.564 160.158 653.164 155.087 653.209 150.654L638.054 154.687C628.625 156.875 615.243 160.407 605.975 161.846C621.955 170.048 638.02 178.261 653.509 187.378ZM257.634 165.514C270.085 158.611 279.698 154.781 293.373 151.004C292.325 157.293 290.035 164.599 294.928 169.831L296.16 169.967C300.018 166.511 300.352 151.538 298.46 147.211C297.15 147.074 296.999 146.921 295.802 147.387C283.073 148.89 272.014 152.586 260.934 159.041C255.752 162.06 242.525 169.364 242.424 175.88C244.189 175.605 253.407 167.87 257.634 165.514ZM579.868 502.056C586.814 505.641 598.401 510.201 601.222 517.611L600.742 518.901C595.285 520.941 585.154 515.488 580.637 512.758C584.874 523.258 588.015 533.676 590.972 544.596C594.226 544.004 596.611 543.269 599.741 544.296L601.106 545.496C600.422 548.549 597.776 549.936 595.126 551.616C594.639 551.924 594.15 552.231 593.658 552.531C594.15 557.211 595.564 562.093 596.741 566.676C599.3 564.898 602.376 562.401 605.332 561.764C607.168 562.401 606.468 561.831 607.429 563.616C603.97 571.004 598.236 574.386 598.983 579.996C604.103 585.111 621.26 571.746 621.008 560.631C620.751 549.246 609.6 533.946 610.984 529.004C614.416 528.201 616.272 529.551 619.437 531.344C633.164 513.561 651.116 491.218 648.483 466.881C646.908 452.389 632.433 438.825 620.956 430.603C595.278 412.206 565.313 399.305 537.695 384.101C534.671 382.435 531.559 380.659 528.448 379.163C533.215 397.808 544.66 429.12 554.379 446.233C563.944 451.203 582.264 459.576 592.795 462.111C598.961 460.724 611.738 454.753 614.665 455.998C615.377 464.008 600.773 469.424 594.624 471.546C589.512 481.619 584.592 491.788 579.868 502.056ZM395.373 777.479C394.233 783.441 387.775 813.974 389.329 817.131C390.674 817.176 391.713 817.244 393.068 817.109C415.824 816.846 431.163 817.514 453.628 818.339C452.452 807.861 451.558 797.354 450.95 786.831C450.799 784.416 450.18 771.943 449.847 770.586C434.469 774.261 411.207 776.624 395.373 777.479ZM508.771 116.543C503.118 117.5 488.731 119.121 488.588 125.863L489.597 127.181C494.572 125.933 496.521 123.566 501.906 122.5C505.719 121.714 508.008 121.172 511.879 121.15C514.929 121.132 523.622 123.097 525.554 122.188C525.8 120.082 525.931 119.886 524.99 118.097C521.539 115.561 512.881 115.691 508.771 116.543ZM400.698 239.28C449.021 237.172 482.579 203.384 480.266 154.033C479.455 135.484 471.252 118.032 457.486 105.569C443.046 92.4938 412.671 81.453 392.835 84.3915C350.94 88.086 314.447 107.019 312.931 154.201C311.215 207.653 349.678 240.235 400.698 239.28ZM253.095 484.491C256.282 487.161 258.768 491.196 261.053 494.714L265.725 501.336C266.215 495.238 269.373 480.329 269.111 475.566C263.405 479.061 259.192 481.709 253.095 484.491ZM567.676 112.916C564.37 116.462 562.905 119.166 561.034 123.697L569.351 125.727C574.886 133.822 578.39 148.73 584.031 152.959L587.262 153.691L588.099 153.026C587.246 143.484 575.69 118.366 567.676 112.916ZM676.69 115.568C689.008 142.738 687.68 173.518 664.327 194.149C667.538 195.86 671.206 197.709 674.229 199.64C689.241 177.847 695.129 159.97 690.801 133.483C683.464 88.5952 645.272 72.6052 604.245 75.2197C603.997 75.276 603.75 75.3323 603.503 75.3885C573.098 78.2198 536.104 93.5273 536.844 129.984C536.913 133.4 539.781 134.828 542.531 136.018L543.586 135.532C544.009 132.535 544.3 125.51 544.875 123.395C558.445 73.509 643.683 68.3063 671.634 107.41C673.517 110.048 675.16 112.742 676.69 115.568ZM578.201 471.868C573.243 469.011 564.657 463.881 559.698 461.571C560.939 464.189 571.141 486.554 571.429 486.674C572.503 484.851 573.117 483.748 573.993 481.828L578.201 471.868ZM571.814 705.711C555.15 729.508 538.482 743.691 511.525 755.879C503.596 759.464 495.836 761.668 488.025 764.773C487.707 771.846 488.024 794.046 485.024 798.688C478.781 801.426 472.279 786.666 470.585 782.346C469.59 779.744 468.611 777.126 467.648 774.508C468.108 791.923 468.613 803.421 471.458 820.723C468.774 821.616 466.447 822.044 464.594 824.061L464.864 825.426C468.67 826.341 483.955 827.796 489.143 828.493C508.576 831.253 528.043 833.766 547.54 836.031C553.372 836.661 566.939 839.548 568.93 832.273C566.474 822.148 549.099 818.069 540.415 815.804C558.371 809.646 574.494 814.318 582.591 832.161C587.675 832.918 599.834 834.673 599.21 827.751C597.282 806.398 554.637 803.361 542.067 803.083C539.622 803.031 537.177 803.001 534.731 802.986C536.935 801.374 544.724 796.409 545.526 794.151C555.7 765.524 562.933 735.621 571.928 706.559C571.89 706.274 571.852 705.996 571.814 705.711Z" fill="black"/>
<path d="M505.232 707.849C505.533 708.127 506.115 709.138 506.368 709.543C505.607 720.035 492.669 734.203 482.564 737.586L482.016 736.843C482.138 733.249 501.285 712.469 505.232 707.849ZM533.171 685.589C536.406 691.596 528.211 711.501 524.866 717.321C521.432 723.299 517.96 727.566 511.921 730.866L511.276 730.972L510.572 729.861C511.226 726.561 529.471 690.361 532.441 685.222L533.171 685.589ZM559.107 665.855C561.57 668.24 560.169 675.381 559.407 678.464C555.653 693.651 550.152 706.918 536.76 715.851L535.98 715.004C536.215 713.609 556.821 669.71 559.107 665.855Z" fill="black"/>
<path d="M394.089 91.8928C415.845 92.0473 434.495 96.4484 451.306 111.676C464.68 123.991 471.451 140.683 471.912 158.669C473.011 201.466 441.695 231.067 399.827 232.139C355.616 231.865 323.599 207.1 321.401 161.061C319.298 117.013 352.896 93.1746 394.089 91.8928ZM405.572 221.497C440.475 218.44 460.838 192.349 457.349 157.977C453.285 117.932 425.806 101.761 388.219 103.183C372.383 105.505 353.9 110.605 344.779 124.656C315.677 169.488 352.594 228.877 405.572 221.497Z" fill="black"/>
<path d="M419.334 125.377C439.363 123.376 444.73 144.007 445.615 160.363C446.196 171.115 443.234 180.679 433.643 186.446C406.047 193.747 398.388 138.484 419.334 125.377Z" fill="black"/>
</svg>
