<svg width="728" height="858" viewBox="0 0 728 858" fill="none" xmlns="http://www.w3.org/2000/svg">
<path d="M505.232 707.849C505.533 708.127 506.115 709.138 506.368 709.543C505.607 720.035 492.669 734.203 482.564 737.586L482.016 736.843C482.139 733.248 501.285 712.469 505.232 707.849Z" fill="black"/>
<path d="M533.171 685.589C536.405 691.596 528.211 711.501 524.866 717.321C521.432 723.298 517.96 727.566 511.921 730.866L511.276 730.972L510.572 729.861C511.227 726.559 529.471 690.362 532.441 685.222L533.171 685.589Z" fill="black"/>
<path d="M559.107 665.855C561.57 668.24 560.169 675.381 559.407 678.464C555.653 693.651 550.151 706.918 536.76 715.851L535.98 715.004C536.219 713.601 556.82 669.712 559.107 665.855Z" fill="black"/>
<path d="M419.334 125.378C439.362 123.377 444.73 144.007 445.614 160.363C446.196 171.116 443.234 180.68 433.643 186.446C406.047 193.746 398.389 138.485 419.334 125.378Z" fill="black"/>
<path fill-rule="evenodd" clip-rule="evenodd" d="M394.09 91.8926C415.846 92.0471 434.495 96.4481 451.306 111.676C464.68 123.99 471.452 140.682 471.913 158.669C473.011 201.465 441.695 231.066 399.827 232.139C355.617 231.865 323.599 207.099 321.401 161.061C319.299 117.013 352.897 93.1743 394.09 91.8926ZM457.35 157.977C453.285 117.932 425.807 101.761 388.22 103.183C372.383 105.505 353.9 110.605 344.779 124.655C315.677 169.487 352.594 228.877 405.572 221.497C440.475 218.44 460.838 192.349 457.35 157.977Z" fill="black"/>
<path fill-rule="evenodd" clip-rule="evenodd" d="M429.801 0C441.244 2.63321 431.293 22.4777 428.485 29.543C436.834 23.4649 454.091 11.5669 464.537 14.5908C472.218 21.226 455.19 41.7532 450.584 48.457C480.843 46.2895 523.947 60.5095 548.028 80.2607C567.569 69.0911 582.8 64.4598 605.63 63.1855C631.712 61.831 660.673 67.1718 680.448 85.3105C712.361 114.582 714.919 174.869 685.347 206.426C699.465 216.11 716.607 228.021 723.456 244.13C730.958 261.777 729.338 279.693 711.573 289.689C684.507 304.926 656.48 288.908 629.273 283.117C612.001 279.441 594.672 276.381 577.008 277.276C572.369 277.555 551.854 289.358 546.211 292.086C538.807 295.616 531.318 298.966 523.75 302.132C521.688 321.79 522.87 343.13 525.188 362.727L578.649 391.827C608.42 408.078 660.756 432.509 662.895 470.961C664.237 495.178 646.067 524.129 630.391 541.604C641.685 568.394 631.067 593.203 600.812 596.556C601.771 664.858 580.685 726.921 561.153 791.833C578.783 792.553 618.424 805.521 618.795 827.788C619.077 844.708 593.077 844.229 581.247 843.974C580.699 844.431 580.145 844.881 579.585 845.316C577.594 846.876 575.775 848.076 573.257 848.631C558.119 851.983 513.454 843.539 495.543 841.281C481.666 839.526 397.954 831.104 389.759 837.823C381.249 844.798 342.127 853.019 328.768 855.599C318.963 857.496 309.455 858.741 300.805 852.913C295.097 855.156 292.635 855.794 286.574 856.581C279.015 856.251 275.209 851.264 272.256 851.443C263.66 851.976 256.672 857.916 249.163 846.344C241.838 845.991 220.42 844.589 227.892 831.644C237.813 814.454 261.122 805.933 279.237 800.376L275.357 790.589C226.645 808.626 190.778 814.221 134.353 803.976C97.1306 797.218 -1.12527 766.071 0.00975142 711.756C0.328834 696.486 32.6339 709.933 42.0449 712.431C82.4745 723.163 126.152 719.788 162.514 697.971C207.032 671.256 223.802 638.346 236.354 590.016C232.973 586.798 221.786 572.856 220.113 571.903C191.891 555.861 166.162 536.781 149.521 508.063C128.511 471.793 145.062 447.441 174.46 424.599C200.932 404.029 228.024 388.662 257.29 372.504C260.904 359.206 264.097 344.966 267.322 331.506C262.204 337.983 257.09 341.926 249.31 344.507C252.62 327.727 258.471 307.637 262.435 290.252C259.39 292.144 256.092 293.483 252.811 294.936C252.438 281.219 256.897 269.868 257.565 256.543C257.605 255.742 253.708 257.346 251.742 256.678C249.626 253.566 254.621 200.487 255.018 192.198C250.694 195.893 239.951 206.046 234.428 205.097C222.975 203.127 224.766 179.955 228.451 172.064C231.388 165.777 233.893 163.874 239.384 159.659C230.85 153.728 224.454 147.339 219.989 137.774C214.969 127.009 214.449 114.687 218.545 103.537C231.487 68.8395 276.747 66.6165 306.869 78.1387C321.135 67.2659 331.948 61.7308 348.726 56.1523C349.375 54.8174 350.037 53.4891 350.711 52.167C355.867 42.0735 383.307 0.817504 395.513 7.18457C399.256 12.2793 397.405 21.0534 396.635 27.2529C404.148 18.1277 418.838 4.4093 429.801 0ZM513.614 141.099C511.586 141.041 509.556 141.056 507.528 141.145C501.117 143.15 498.16 145.135 494.17 150.8C495.633 178.967 489.627 203.545 470.595 224.828C434.771 264.888 366.83 268.33 327.265 231.97C311.788 217.747 300.878 195.984 299.557 175.051C286.796 177.079 281.268 177.779 269.393 182.206C268.71 198.602 267.819 217.669 266.293 233.947C273.088 218.727 277.853 205.538 286.27 190.977C283.102 218.485 275.213 249.701 268.223 276.913C275.66 263.308 284.093 243.917 291.91 231.781C291.576 254.688 281.876 294.373 274.966 317.67C281.382 306.873 291.972 287.778 300.513 279.684C295.125 305.922 287.057 331.78 278.147 357.044C277.303 359.439 276.815 361.12 276.43 363.65L276.975 364.348C284.398 363.062 292.858 335.385 302.749 327.597L303.895 327.795C305.06 333.07 296.033 358.266 293.525 364.735C302.099 366.454 320.615 373.776 320.535 384.563L319.651 385.331C317.113 384.619 313.588 382.264 311.253 380.85C302.522 375.563 297.546 373.004 287.444 371.604C250.292 389.512 208.488 414.46 176.441 440.03C153.063 458.683 152.505 475.154 161.942 501.134C161.568 492.119 161.09 473.563 166.478 466.221L167.627 466.011C168.681 470.346 168.855 478.476 169.258 483.321C170.852 502.513 175.536 513.441 186.979 528.583C185.294 522.072 179.394 496.252 185.013 491.624C187.199 493.823 189.801 509.683 191.786 514.708C196.992 527.87 201.616 535.438 209.92 546.681C206.239 534.111 204.66 527.894 204.775 514.566C212.205 527.084 218.367 546.321 227.966 556.858C230.615 554.953 229.146 552.185 231.994 550.896C234.609 554.473 236.578 564.689 238.325 566.901C242.73 572.489 268.901 596.391 275.276 595.769C295.923 593.743 273.52 571.551 269.383 565.716L270.307 565.971C277.537 568.033 283.121 572.182 287.981 577.874C297.015 588.456 301.399 582.208 304.046 571.746L304.275 570.823C302.492 566.533 301.566 564.261 299.246 560.181C296.517 555.388 284.917 548.594 286.525 544.499C296.176 540.164 308.103 558.936 312.682 559.881C318.934 550.558 311.361 536.398 302.968 531.051C290.821 523.318 275.419 522.846 261.497 521.743C259.846 521.608 258.912 521.046 257.904 519.906C259.375 516.711 260.707 516.149 259.616 513.816C252.664 498.989 233.083 484.228 225.346 473.271C230.421 474.298 234.127 475.072 239.124 476.624L239.88 476.286C254.273 469.829 300.307 438.502 313.537 439.582L314.903 440.493C315.066 446.582 301.637 457.761 296.823 462.389C303.006 464.594 315.239 468.344 319.616 472.401L320.075 473.999C317.897 476.286 314.081 476.196 310.909 476.286C304.815 476.451 298.719 476.053 292.698 475.101C289.618 488.488 287.773 499.266 285.286 512.736C310.504 517.349 332.027 529.424 328.195 560.144C327.573 565.131 323.35 568.731 321.254 573.021C313.267 589.746 311.595 599.878 290.707 600.021C278.888 611.668 269.948 609.509 255.948 602.781C255.634 612.224 250.582 649.933 248.817 660.171C255.99 645.741 261.114 632.548 269.934 618.756L270.148 618.419C269.724 625.169 268.838 631.881 267.497 638.511C264.365 656.496 261.105 678.824 257.354 696.299C265.91 678.111 271.131 661.566 281.536 643.521C281.043 669.658 273.036 700.987 273.833 728.999C278.47 713.279 284.817 690.411 293.432 676.971C293.233 684.966 290.029 734.174 286.846 737.106C285.915 737.961 284.759 738.561 283.665 739.184C281.034 744.194 290.989 787.994 293.184 794.504C295.047 800.031 295.72 801.666 300.357 804.988C299.181 805.573 293.752 806.466 291.853 806.894C281.22 809.301 241.101 823.154 246.869 837.066L248.162 837.636C254.045 834.703 261.802 817.852 268.16 819.374C268.655 823.357 258.623 836.128 261.872 842.346C263.551 843.366 264.28 843.449 266.244 842.999C274.701 841.079 277.474 823.873 298.751 817.408L298.309 818.136C294.411 824.511 279.319 838.364 286.561 845.639C300.408 850.349 301.724 818.151 323.881 820.483L324.436 821.526C321.493 827.691 308.581 834.696 309.738 843.059C311.244 844.881 311.611 845.144 314.114 845.331C319.791 845.759 370.308 833.241 377.835 830.586C377.947 827.473 378.368 823.603 377.415 820.783C374.309 818.623 371.857 820.768 372.155 818.241C373.826 804.149 383.952 754.588 391.751 746.698L393.429 746.091C396.104 748.956 396.264 757.356 396.336 761.384C466.67 754.326 552.003 743.743 577.185 666.943C585.796 640.686 587.515 616.986 584.818 589.559C574.608 485.699 497.906 415.132 507.102 306.664C496.59 311.337 473.737 318.569 462.85 315.534L461.959 314.671C463.265 311.635 470.678 308.599 474.001 307.55C499.972 299.349 524.917 284.783 550.152 275.832C540.463 276.662 530.771 277.121 521.06 277.665C494.997 279.128 464.554 283.372 439.829 273.567C437.324 277.751 435.678 281.745 430.913 283.088C428.507 282.657 429.506 283.219 427.906 281.192C425.157 270.044 437.539 257.859 445.762 252.131C445.618 255.416 445.149 260.108 446.052 263.123C456.857 269.773 531.474 263.444 549.997 263.366C594.001 263.179 622.93 266.354 665.654 279.29C659.421 273.008 656.27 266.423 656.375 257.374C656.383 249.665 659.511 242.288 665.047 236.917C673.854 228.384 684.649 227.335 694.814 234.032C688.625 235.958 676.135 238.936 676.728 247.381C681.371 254.587 693.996 239.597 701.903 248.533C706.997 254.287 705.654 266.145 707.8 267.754C710.755 265.238 711.663 263.792 712.166 259.792C713.201 251.468 705.482 238.653 700.021 233.299C671.686 205.523 548.435 142.412 513.614 141.099ZM571.814 705.711C555.15 729.508 538.482 743.691 511.525 755.879C503.596 759.464 495.835 761.668 488.024 764.773C487.706 771.846 488.024 794.046 485.024 798.688C478.781 801.426 472.28 786.666 470.585 782.346C469.59 779.743 468.611 777.126 467.648 774.509C468.108 791.924 468.613 803.421 471.458 820.724C468.775 821.616 466.447 822.044 464.595 824.062L464.863 825.426C468.67 826.341 483.955 827.796 489.144 828.493C508.576 831.253 528.043 833.766 547.54 836.031C553.372 836.661 566.939 839.548 568.93 832.273C566.474 822.149 549.099 818.069 540.415 815.804C558.371 809.646 574.494 814.319 582.591 832.161C587.676 832.919 599.834 834.673 599.21 827.751C597.283 806.399 554.637 803.361 542.067 803.083C539.623 803.031 537.177 803.001 534.731 802.986C536.935 801.374 544.723 796.409 545.526 794.151C555.7 765.524 562.933 735.621 571.928 706.559C571.89 706.274 571.852 705.996 571.814 705.711ZM449.848 770.586C434.47 774.261 411.207 776.624 395.373 777.479C394.234 783.441 387.775 813.972 389.329 817.131C390.674 817.176 391.714 817.243 393.068 817.108C415.824 816.846 431.162 817.514 453.628 818.339C452.452 807.861 451.559 797.354 450.95 786.831C450.799 784.416 450.181 771.944 449.848 770.586ZM234.37 644.886C186.414 727.161 101.836 747.171 15.2519 716.196C21.9054 735.396 40.8959 754.693 59.3496 763.273C52.4877 754.618 50.2477 749.743 47.043 739.153C72.7201 765.291 77.5638 770.069 110.858 783.366C102.264 774.929 93.7097 767.728 88.7803 756.636L88.8701 755.474C91.8696 756.824 100.254 763.971 103.1 766.326C118.085 778.746 128.966 785.744 147.687 791.031L164.883 794.999C149.516 787.049 133.191 776.428 123.225 762.021C155.805 776.135 171.908 791.819 210.278 791.196C192.601 786.494 175.271 777.809 161.723 765.419C203.324 775.184 210.046 781.521 253.349 773.624C240.333 770.909 215.357 766.708 204.695 760.333C217.761 759.141 242.919 759.231 257.26 758.856C256.756 755.721 255.897 751.206 255.657 748.161C252.568 749.436 249.602 751.138 246.468 750.666L245.594 749.474C246.247 745.694 249.512 742.701 252.121 739.783C251.95 731.571 251.849 724.986 250.833 716.871C245.989 724.439 244.886 727.116 237.334 732.126L236.986 732.351C236.644 717.598 240.146 693.036 239.399 682.424L238.534 682.363C236.611 684.103 234.055 686.961 231.734 687.336C229.319 682.558 234.938 651.643 234.37 644.886ZM528.448 379.163C533.216 397.808 544.66 429.12 554.379 446.232C563.944 451.203 582.264 459.576 592.795 462.111C598.961 460.724 611.739 454.753 614.665 455.998C615.378 464.008 600.773 469.423 594.624 471.546C589.512 481.618 584.592 491.788 579.867 502.056C586.814 505.641 598.401 510.201 601.223 517.611L600.742 518.901C595.285 520.941 585.154 515.489 580.637 512.759C584.874 523.259 588.015 533.676 590.972 544.596C594.226 544.003 596.611 543.269 599.741 544.296L601.106 545.496C600.422 548.548 597.776 549.936 595.126 551.616C594.639 551.924 594.15 552.231 593.658 552.531C594.15 557.211 595.564 562.093 596.74 566.676C599.299 564.898 602.376 562.401 605.332 561.764C607.168 562.401 606.468 561.831 607.429 563.616C603.97 571.004 598.236 574.386 598.983 579.996C604.104 585.11 621.26 571.746 621.009 560.631C620.751 549.246 609.601 533.947 610.984 529.004C614.416 528.201 616.272 529.551 619.438 531.344C633.164 513.561 651.117 491.218 648.483 466.881C646.908 452.389 632.433 438.825 620.956 430.603C595.278 412.206 565.313 399.305 537.695 384.101C534.671 382.435 531.559 380.659 528.448 379.163ZM269.111 475.566C263.406 479.061 259.192 481.709 253.096 484.491C256.282 487.161 258.769 491.196 261.054 494.714L265.726 501.336C266.215 495.239 269.373 480.329 269.111 475.566ZM559.698 461.571C560.94 464.19 571.141 486.554 571.429 486.674C572.503 484.851 573.117 483.748 573.993 481.828L578.201 471.868C573.243 469.011 564.657 463.881 559.698 461.571ZM457.485 105.569C443.046 92.4939 412.671 81.4531 392.835 84.3916C350.94 88.0861 314.447 107.019 312.932 154.201C311.215 207.653 349.678 240.235 400.698 239.28C449.021 237.172 482.578 203.384 480.266 154.033C479.455 135.484 471.251 118.032 457.485 105.569ZM690.801 133.482C683.464 88.5953 645.272 72.6054 604.245 75.2197C603.998 75.276 603.75 75.3324 603.503 75.3887C573.098 78.2199 536.104 93.5276 536.844 129.984C536.913 133.4 539.781 134.828 542.531 136.018L543.586 135.532C544.009 132.535 544.3 125.51 544.875 123.395C558.445 73.509 643.683 68.3067 671.634 107.41C673.517 110.048 675.16 112.742 676.69 115.568C689.008 142.738 687.68 173.518 664.327 194.148C667.538 195.86 671.206 197.709 674.229 199.641C689.241 177.847 695.129 159.97 690.801 133.482ZM614.158 92.4258C612.154 92.4303 610.252 92.2481 608.246 92.623C593.366 93.9985 586.633 96.864 574.776 105.497C587.76 118.265 593.593 131.206 600.951 147.584C614.215 142.813 631.08 136.963 643.904 130.608C646.555 129.297 651.716 122.655 654.409 123.258C660.576 131.025 662.219 156.405 655.857 164.112L654.688 163.932C652.565 160.158 653.164 155.087 653.209 150.654L638.054 154.687C628.625 156.874 615.243 160.407 605.976 161.847C621.955 170.049 638.02 178.261 653.51 187.378C664.725 177.312 668.235 169.54 669.226 154.398C671.409 120.84 648.783 92.3358 614.158 92.4258ZM298.46 147.211C297.15 147.074 296.999 146.921 295.803 147.387C283.074 148.89 272.014 152.586 260.934 159.041C255.752 162.06 242.526 169.363 242.424 175.88C244.189 175.605 253.406 167.87 257.634 165.514C270.085 158.611 279.698 154.782 293.373 151.004C292.326 157.293 290.035 164.599 294.928 169.831L296.159 169.967C300.017 166.511 300.352 151.538 298.46 147.211ZM567.676 112.915C564.37 116.461 562.905 119.166 561.034 123.697L569.352 125.727C574.886 133.822 578.391 148.731 584.031 152.96L587.262 153.691L588.099 153.026C587.246 143.484 575.69 118.365 567.676 112.915ZM420.237 17.248C412.57 23.3477 405.529 30.1948 399.22 37.6895C396.448 40.9335 388.374 52.0676 384.719 52.9326C383.75 52.2952 383.392 52.3695 383.332 51.6025C382.651 42.847 385.143 29.5848 386.381 20.7783C371.322 39.8463 367.511 41.5406 357.789 65.5488C343.523 70.3465 321.116 78.8512 311.431 92.3623C309.647 94.8501 288.773 85.2581 284.635 85.2686C256.907 80.8618 219.945 94.5558 231.038 128.919C234.232 138.813 242.451 146.753 251.455 151.985C266.837 144.343 279.191 139.045 296.065 135.926C298.079 135.553 298.643 134.031 299.409 132.414C298.918 124.781 289.236 120.769 282.02 120.618C273.61 120.443 257.037 135.015 251.621 133.764C248.404 126.528 259.314 117.214 263.986 113.344C257.508 113.026 244.577 114.969 241.322 112.786C242.451 103.209 263.512 102.263 270.781 103.514C274 104.084 277.185 104.84 280.317 105.774C290.106 109.906 297.277 113.931 302.991 123.289C330.974 60.0633 444.772 54.9871 482.28 113.755C495.778 108.185 510.242 104.694 524.947 107.252C528.294 98.7913 530.808 94.398 537.341 87.7539C517.631 67.6097 474.965 59.9694 447.889 58.1514C444.295 57.9099 435.779 58.6309 436.223 54.2246C437.092 45.5711 447.987 31.6097 453.159 24.8291C440.718 30.6318 430.141 36.6682 420.208 46.2178C417.704 48.6252 414.999 51.3879 411.577 51.3281C409.065 45.0935 421.105 21.7426 420.237 17.248ZM524.99 118.097C521.539 115.561 512.882 115.691 508.771 116.543C503.118 117.501 488.731 119.121 488.588 125.862L489.598 127.182C494.573 125.933 496.521 123.567 501.906 122.501C505.719 121.714 508.007 121.172 511.879 121.149C514.928 121.131 523.622 123.097 525.554 122.188C525.8 120.083 525.931 119.886 524.99 118.097Z" fill="black"/>
</svg>
